<svg xmlns="http://www.w3.org/2000/svg" viewBox="0 0 713.2 654.98"><defs><style>.cls-1,.cls-9{fill:#33b59b;}.cls-1,.cls-11,.cls-12,.cls-2,.cls-5,.cls-6,.cls-7{fill-rule:evenodd;}.cls-2,.cls-8{fill:#115447;}.cls-15,.cls-3,.cls-7{fill:#454545;}.cls-4{fill:#fff;}.cls-5{fill:#a6b3b0;}.cls-6{fill:#1e806c;}.cls-10,.cls-14{fill:none;stroke-miterlimit:22.93;}.cls-10{stroke:#808f8c;stroke-width:6.68px;}.cls-11,.cls-13{fill:#d8e6e3;}.cls-12,.cls-16{fill:#808f8c;}.cls-14{stroke:#d8e6e3;stroke-width:1.67px;}.cls-15{font-size:70.39px;font-family:VeteranTypewriter;}</style></defs><title>Asset 1</title><g id="Layer_2" data-name="Layer 2"><g id="Layer_1-2" data-name="Layer 1"><path class="cls-1" d="M78.51,196.92h44.77c11.82,0,17.49,1.52,21.54,20.19,18.93,87.27,106.06,153.72,211.78,153.72,106,0,194.23-66.68,211.94-154.48,3-15.06,13-19.43,19.66-19.43h46.5c12.91,0,23.47,9.91,23.47,22V422.79c0,12.12-10.56,22-23.47,22H78.51c-12.92,0-23.48-9.91-23.48-22V218.94C55,206.83,65.59,196.92,78.51,196.92Z"/><path class="cls-1" d="M114.17,68.6H599c11.26,0,20.46,8.64,20.46,19.2V265.5c0,10.57-9.2,19.2-20.46,19.2H114.17c-11.25,0-20.46-8.63-20.46-19.2V87.8C93.71,77.24,102.92,68.6,114.17,68.6Z"/><path class="cls-2" d="M124.79,81.94H588.41c10.52,0,19.11,8.07,19.11,17.93v166c0,9.87-8.6,17.94-19.11,17.94H124.79c-10.51,0-19.11-8.07-19.11-17.94v-166C105.68,90,114.28,81.94,124.79,81.94Z"/><rect class="cls-3" x="28.49" y="162.01" width="656.21" height="56.25"/><rect class="cls-4" x="118.08" width="477.03" height="265.38"/><polygon class="cls-2" points="658.17 218.25 658.17 422.79 647.12 473.13 356.6 555.2 67.14 473.99 55.03 422.79 55.03 218.25 658.17 218.25"/><path class="cls-5" d="M307.65,218.26h92.9l135.63,45.48c-29.69,55.11-98.88,93.75-179.5,93.75-83.28,0-154.34-41.22-182.29-99.23Z"/><path class="cls-1" d="M645.71,479.85l-37.1,114C591.65,645.9,555,655,535.25,655H179.52c-25.92,0-58.63-15.93-73.36-61.17L67.14,474c-3.76-11.56,1.63-18.58,17.8-18.58H630.46C644.08,455.41,650.29,465.79,645.71,479.85Z"/><path class="cls-6" d="M185.16,630.27c-29.7,0-37.2-3.83-49.13-37.11L100.51,494.1c-3-8.51,1.1-14,12-14H600.73c10.86,0,15,5.47,12,14l-35.52,99.06c-11.93,33.28-23.65,37.11-49.13,37.11Z"/><path class="cls-7" d="M190.51,630.27c-14.47,0-40.17-2-45.62-28.85l-15.66-77c-1.39-6.86.87-10.87,9.49-10.87H574.48c8.62,0,10.88,4,9.49,10.87l-15.66,77c-5.45,26.83-31.33,28.85-45.62,28.85Z"/><path class="cls-1" d="M78.51,203.06h44.77c11.82,0,17.49,1.53,21.54,20.19,18.93,87.27,106.06,147.58,211.78,147.58,106,0,194.23-60.54,211.94-148.34,3-15.06,13-19.43,19.66-19.43h46.5c12.91,0,23.47,9.91,23.47,22v197.7c0,12.12-10.56,22-23.47,22H78.51c-12.92,0-23.48-9.91-23.48-22V225.09C55,213,65.59,203.06,78.51,203.06Z"/><path class="cls-6" d="M124.3,203.07c11.13.09,16.59,2.06,20.52,20.18,18.93,87.27,106.06,147.58,211.78,147.58,106,0,194.23-60.54,211.94-148.34,3-15.06,13-19.43,19.66-19.43h.7c-7.42,107.08-108.58,185.77-232.3,185.77S131.73,310.15,124.3,203.07Z"/><ellipse class="cls-8" cx="9.86" cy="190.13" rx="9.86" ry="28.12"/><rect class="cls-9" x="9.85" y="145.28" width="18.64" height="89.71"/><ellipse class="cls-8" cx="703.35" cy="190.13" rx="9.86" ry="28.12"/><rect class="cls-9" x="684.71" y="145.28" width="18.64" height="89.71"/><line class="cls-10" x1="28.49" y1="190.13" x2="684.71" y2="190.13"/><line class="cls-10" x1="167.25" y1="172.14" x2="167.25" y2="208.12"/><line class="cls-10" x1="545.95" y1="172.14" x2="545.95" y2="208.12"/><path class="cls-11" d="M170.36,519.93h15.28a4.84,4.84,0,0,1,5,4.66v11.93a4.85,4.85,0,0,1-5,4.67H170.36a4.85,4.85,0,0,1-5-4.67V524.59A4.84,4.84,0,0,1,170.36,519.93Z"/><path class="cls-11" d="M154,547.49h15.28a4.84,4.84,0,0,1,5,4.66v11.94a4.84,4.84,0,0,1-5,4.66H154a4.84,4.84,0,0,1-5-4.66V552.15A4.84,4.84,0,0,1,154,547.49Z"/><path class="cls-11" d="M170.36,575.05h15.28a4.85,4.85,0,0,1,5,4.67v11.93a4.85,4.85,0,0,1-5,4.67H170.36a4.85,4.85,0,0,1-5-4.67V579.72A4.85,4.85,0,0,1,170.36,575.05Z"/><path class="cls-11" d="M202.86,519.93h15.28a4.84,4.84,0,0,1,5,4.66v11.93a4.85,4.85,0,0,1-5,4.67H202.86a4.85,4.85,0,0,1-5-4.67V524.59A4.84,4.84,0,0,1,202.86,519.93Z"/><path class="cls-11" d="M186.46,547.49h15.28a4.84,4.84,0,0,1,5,4.66v11.94a4.84,4.84,0,0,1-5,4.66H186.46a4.84,4.84,0,0,1-5-4.66V552.15A4.84,4.84,0,0,1,186.46,547.49Z"/><path class="cls-11" d="M202.86,575.05h15.28a4.85,4.85,0,0,1,5,4.67v11.93a4.85,4.85,0,0,1-5,4.67H202.86a4.85,4.85,0,0,1-5-4.67V579.72A4.85,4.85,0,0,1,202.86,575.05Z"/><path class="cls-11" d="M186.46,602.61h15.28a4.85,4.85,0,0,1,5,4.67v11.93a4.85,4.85,0,0,1-5,4.67H186.46a4.85,4.85,0,0,1-5-4.67V607.28A4.85,4.85,0,0,1,186.46,602.61Z"/><path class="cls-11" d="M235.36,519.93h15.28a4.84,4.84,0,0,1,5,4.66v11.93a4.85,4.85,0,0,1-5,4.67H235.36a4.85,4.85,0,0,1-5-4.67V524.59A4.84,4.84,0,0,1,235.36,519.93Z"/><path class="cls-11" d="M219,547.49h15.28a4.84,4.84,0,0,1,5,4.66v11.94a4.84,4.84,0,0,1-5,4.66H219a4.84,4.84,0,0,1-5-4.66V552.15A4.84,4.84,0,0,1,219,547.49Z"/><path class="cls-11" d="M235.36,575.05h15.28a4.85,4.85,0,0,1,5,4.67v11.93a4.85,4.85,0,0,1-5,4.67H235.36a4.85,4.85,0,0,1-5-4.67V579.72A4.85,4.85,0,0,1,235.36,575.05Z"/><path class="cls-11" d="M267.86,519.93h15.28a4.84,4.84,0,0,1,5,4.66v11.93a4.85,4.85,0,0,1-5,4.67H267.86a4.85,4.85,0,0,1-5-4.67V524.59A4.84,4.84,0,0,1,267.86,519.93Z"/><path class="cls-11" d="M251.46,547.49h15.28a4.84,4.84,0,0,1,5,4.66v11.94a4.84,4.84,0,0,1-5,4.66H251.46a4.84,4.84,0,0,1-5-4.66V552.15A4.84,4.84,0,0,1,251.46,547.49Z"/><path class="cls-11" d="M267.86,575.05h15.28a4.85,4.85,0,0,1,5,4.67v11.93a4.85,4.85,0,0,1-5,4.67H267.86a4.85,4.85,0,0,1-5-4.67V579.72A4.85,4.85,0,0,1,267.86,575.05Z"/><path class="cls-11" d="M300.36,519.93h15.28a4.84,4.84,0,0,1,5,4.66v11.93a4.85,4.85,0,0,1-5,4.67H300.36a4.85,4.85,0,0,1-5-4.67V524.59A4.84,4.84,0,0,1,300.36,519.93Z"/><path class="cls-11" d="M284,547.49h15.28a4.84,4.84,0,0,1,5,4.66v11.94a4.84,4.84,0,0,1-5,4.66H284a4.84,4.84,0,0,1-5-4.66V552.15A4.84,4.84,0,0,1,284,547.49Z"/><path class="cls-11" d="M300.36,575.05h15.28a4.85,4.85,0,0,1,5,4.67v11.93a4.85,4.85,0,0,1-5,4.67H300.36a4.85,4.85,0,0,1-5-4.67V579.72A4.85,4.85,0,0,1,300.36,575.05Z"/><path class="cls-11" d="M332.86,519.93h15.28a4.84,4.84,0,0,1,5,4.66v11.93a4.85,4.85,0,0,1-5,4.67H332.86a4.85,4.85,0,0,1-5-4.67V524.59A4.84,4.84,0,0,1,332.86,519.93Z"/><path class="cls-11" d="M316.46,547.49h15.28a4.84,4.84,0,0,1,5,4.66v11.94a4.84,4.84,0,0,1-5,4.66H316.46a4.84,4.84,0,0,1-5-4.66V552.15A4.84,4.84,0,0,1,316.46,547.49Z"/><path class="cls-11" d="M332.86,575.05h15.28a4.85,4.85,0,0,1,5,4.67v11.93a4.85,4.85,0,0,1-5,4.67H332.86a4.85,4.85,0,0,1-5-4.67V579.72A4.85,4.85,0,0,1,332.86,575.05Z"/><path class="cls-11" d="M365.36,519.93h15.28a4.84,4.84,0,0,1,5,4.66v11.93a4.85,4.85,0,0,1-5,4.67H365.36a4.85,4.85,0,0,1-5-4.67V524.59A4.84,4.84,0,0,1,365.36,519.93Z"/><path class="cls-11" d="M349,547.49h15.28a4.84,4.84,0,0,1,5,4.66v11.94a4.84,4.84,0,0,1-5,4.66H349a4.84,4.84,0,0,1-5-4.66V552.15A4.84,4.84,0,0,1,349,547.49Z"/><path class="cls-11" d="M365.36,575.05h15.28a4.85,4.85,0,0,1,5,4.67v11.93a4.85,4.85,0,0,1-5,4.67H365.36a4.85,4.85,0,0,1-5-4.67V579.72A4.85,4.85,0,0,1,365.36,575.05Z"/><path class="cls-11" d="M397.86,519.93h15.28a4.84,4.84,0,0,1,5,4.66v11.93a4.85,4.85,0,0,1-5,4.67H397.86a4.85,4.85,0,0,1-5-4.67V524.59A4.84,4.84,0,0,1,397.86,519.93Z"/><path class="cls-11" d="M381.46,547.49h15.28a4.84,4.84,0,0,1,5,4.66v11.94a4.84,4.84,0,0,1-5,4.66H381.46a4.84,4.84,0,0,1-5-4.66V552.15A4.84,4.84,0,0,1,381.46,547.49Z"/><path class="cls-11" d="M397.86,575.05h15.28a4.85,4.85,0,0,1,5,4.67v11.93a4.85,4.85,0,0,1-5,4.67H397.86a4.85,4.85,0,0,1-5-4.67V579.72A4.85,4.85,0,0,1,397.86,575.05Z"/><path class="cls-11" d="M430.36,519.93h15.28a4.84,4.84,0,0,1,5,4.66v11.93a4.85,4.85,0,0,1-5,4.67H430.36a4.85,4.85,0,0,1-5-4.67V524.59A4.84,4.84,0,0,1,430.36,519.93Z"/><path class="cls-11" d="M414,547.49h15.28a4.84,4.84,0,0,1,5,4.66v11.94a4.84,4.84,0,0,1-5,4.66H414a4.84,4.84,0,0,1-5-4.66V552.15A4.84,4.84,0,0,1,414,547.49Z"/><path class="cls-11" d="M430.36,575.05h15.28a4.85,4.85,0,0,1,5,4.67v11.93a4.85,4.85,0,0,1-5,4.67H430.36a4.85,4.85,0,0,1-5-4.67V579.72A4.85,4.85,0,0,1,430.36,575.05Z"/><path class="cls-11" d="M462.86,519.93h15.28a4.84,4.84,0,0,1,5,4.66v11.93a4.85,4.85,0,0,1-5,4.67H462.86a4.85,4.85,0,0,1-5-4.67V524.59A4.84,4.84,0,0,1,462.86,519.93Z"/><path class="cls-11" d="M446.46,547.49h15.28a4.84,4.84,0,0,1,5,4.66v11.94a4.84,4.84,0,0,1-5,4.66H446.46a4.84,4.84,0,0,1-5-4.66V552.15A4.84,4.84,0,0,1,446.46,547.49Z"/><path class="cls-11" d="M462.86,575.05h15.28a4.85,4.85,0,0,1,5,4.67v11.93a4.85,4.85,0,0,1-5,4.67H462.86a4.85,4.85,0,0,1-5-4.67V579.72A4.85,4.85,0,0,1,462.86,575.05Z"/><path class="cls-11" d="M495.36,519.93h15.28a4.84,4.84,0,0,1,5,4.66v11.93a4.85,4.85,0,0,1-5,4.67H495.36a4.85,4.85,0,0,1-5-4.67V524.59A4.84,4.84,0,0,1,495.36,519.93Z"/><path class="cls-11" d="M479,547.49h15.28a4.84,4.84,0,0,1,5,4.66v11.94a4.84,4.84,0,0,1-5,4.66H479a4.84,4.84,0,0,1-5-4.66V552.15A4.84,4.84,0,0,1,479,547.49Z"/><path class="cls-11" d="M495.36,575.05h15.28a4.85,4.85,0,0,1,5,4.67v11.93a4.85,4.85,0,0,1-5,4.67H495.36a4.85,4.85,0,0,1-5-4.67V579.72A4.85,4.85,0,0,1,495.36,575.05Z"/><path class="cls-11" d="M219,602.61H494.24a4.85,4.85,0,0,1,5,4.67v11.93a4.85,4.85,0,0,1-5,4.67H219a4.85,4.85,0,0,1-5-4.67V607.28A4.85,4.85,0,0,1,219,602.61Z"/><path class="cls-11" d="M527.86,519.93h15.28a4.84,4.84,0,0,1,5,4.66v11.93a4.85,4.85,0,0,1-5,4.67H527.86a4.85,4.85,0,0,1-5-4.67V524.59A4.84,4.84,0,0,1,527.86,519.93Z"/><path class="cls-11" d="M511.46,547.49h15.28a4.84,4.84,0,0,1,5,4.66v11.94a4.84,4.84,0,0,1-5,4.66H511.46a4.84,4.84,0,0,1-5-4.66V552.15A4.84,4.84,0,0,1,511.46,547.49Z"/><path class="cls-11" d="M527.86,575.05h15.28a4.85,4.85,0,0,1,5,4.67v11.93a4.85,4.85,0,0,1-5,4.67H527.86a4.85,4.85,0,0,1-5-4.67V579.72A4.85,4.85,0,0,1,527.86,575.05Z"/><path class="cls-11" d="M511.46,602.61h15.28a4.85,4.85,0,0,1,5,4.67v11.93a4.85,4.85,0,0,1-5,4.67H511.46a4.85,4.85,0,0,1-5-4.67V607.28A4.85,4.85,0,0,1,511.46,602.61Z"/><path class="cls-11" d="M544,547.49h15.28a4.84,4.84,0,0,1,5,4.66v11.94a4.84,4.84,0,0,1-5,4.66H544a4.84,4.84,0,0,1-5-4.66V552.15A4.84,4.84,0,0,1,544,547.49Z"/><path class="cls-12" d="M509.72,254.87c-25.31,47-84.3,79.93-153,79.93-71,0-131.59-35.15-155.42-84.61l106.39-31.93h92.9Z"/><path class="cls-2" d="M427.56,227.31c-11.72,21.76-39,37-70.88,37-32.89,0-60.95-16.28-72-39.18v-6.89H427.43Z"/><path class="cls-5" d="M427.56,227.31c-11.72,21.76-39,37-70.88,37-32.89,0-60.95-16.28-72-39.18l12.77-3.84c9.07,18.85,32.16,32.24,59.21,32.24,26.19,0,48.66-12.55,58.3-30.45Z"/><path class="cls-13" d="M299.88,225.68,180.63,269.75l-.85-1.42L299,224.26C299.3,224.73,299.58,225.21,299.88,225.68Z"/><path class="cls-13" d="M302.07,228.88,187.22,279.71c-.32-.45-.64-.91-1-1.36L301.1,227.53C301.42,228,301.74,228.44,302.07,228.88Z"/><path class="cls-13" d="M304.51,231.9,194.56,289.08c-.36-.42-.71-.86-1.07-1.28l109.94-57.19Q304,231.26,304.51,231.9Z"/><path class="cls-13" d="M307.15,234.7,202.56,297.83l-1.17-1.21L306,233.5C306.35,233.91,306.75,234.31,307.15,234.7Z"/><path class="cls-13" d="M310,237.31,211.12,306l-1.27-1.13,98.85-68.64Z"/><path class="cls-13" d="M312.93,239.7l-92.8,73.72-1.33-1.05,92.79-73.72Z"/><path class="cls-13" d="M316,241.88l-86.48,78.37-1.41-1,86.47-78.38Z"/><path class="cls-13" d="M319.2,243.85l-79.93,82.6-1.47-.89L317.73,243C318.21,243.27,318.7,243.56,319.2,243.85Z"/><path class="cls-13" d="M322.46,245.63,249.25,332c-.51-.26-1-.52-1.52-.79l73.21-86.4Z"/><path class="cls-13" d="M325.79,247.2,259.43,337l-1.56-.72,66.35-89.79Z"/><path class="cls-13" d="M329.16,248.59l-59.39,92.8-1.59-.64L327.56,248Z"/><path class="cls-13" d="M332.57,249.79l-52.33,95.42-1.63-.56,52.33-95.41C331.48,249.43,332,249.62,332.57,249.79Z"/><path class="cls-13" d="M336,250.82l-45.21,97.66-1.65-.48,45.21-97.65Z"/><path class="cls-13" d="M339.46,251.68l-38,99.54-1.67-.4,38-99.54Z"/><path class="cls-13" d="M342.93,252.37,312.09,353.45l-1.69-.32,30.83-101.08Z"/><path class="cls-13" d="M346.41,252.89,322.8,355.18l-1.71-.25L344.7,252.65Q345.54,252.79,346.41,252.89Z"/><path class="cls-13" d="M349.89,253.26,333.52,356.42l-1.72-.17L348.17,253.1Z"/><path class="cls-13" d="M353.37,253.48l-9.12,103.7-1.72-.09,9.12-103.7C352.22,253.43,352.79,253.46,353.37,253.48Z"/><path class="cls-13" d="M356.85,253.55,355,357.48h-1.72l1.86-103.94,1.55,0Z"/><path class="cls-13" d="M360.33,253.47l5.39,103.85-1.71.07-5.4-103.87Z"/><path class="cls-13" d="M363.81,253.23l12.65,103.48-1.72.13L362.09,253.37Z"/><path class="cls-13" d="M367.28,252.85l19.89,102.77-1.7.2-19.9-102.76Z"/><path class="cls-13" d="M370.74,252.31l27.14,101.74-1.71.28L369,252.59Z"/><path class="cls-13" d="M374.19,251.61,408.54,352l-1.68.36L372.51,252Q373.37,251.81,374.19,251.61Z"/><path class="cls-13" d="M377.63,250.74l41.54,98.67-1.67.44L376,251.18C376.52,251,377.08,250.9,377.63,250.74Z"/><path class="cls-13" d="M381,249.71l48.69,96.61-1.64.52L379.4,250.23Z"/><path class="cls-13" d="M384.43,248.5l55.77,94.19-1.61.59L382.82,249.1C383.36,248.91,383.89,248.71,384.43,248.5Z"/><path class="cls-13" d="M387.77,247.11l62.8,91.39-1.59.67L386.19,247.8C386.72,247.58,387.25,247.35,387.77,247.11Z"/><path class="cls-13" d="M391.07,245.54l69.71,88.19-1.54.76L389.53,246.3Z"/><path class="cls-13" d="M394.3,243.77l76.51,84.6-1.5.84-76.5-84.6C393.31,244.34,393.81,244.06,394.3,243.77Z"/><path class="cls-13" d="M397.45,241.81,480.6,322.4l-1.44.92L396,242.73Z"/><path class="cls-13" d="M400.51,239.64l89.58,76.16-1.37,1-89.58-76.16Z"/><path class="cls-13" d="M403.44,237.26l95.79,71.3-1.3,1.1-95.79-71.31C402.58,238,403,237.63,403.44,237.26Z"/><path class="cls-13" d="M406.23,234.68l101.69,66-1.21,1.17L405,235.85C405.43,235.47,405.84,235.08,406.23,234.68Z"/><path class="cls-13" d="M408.85,231.89,516.1,292.18,515,293.43,407.73,233.14C408.11,232.73,408.48,232.31,408.85,231.89Z"/><path class="cls-13" d="M411.27,228.91,523.67,283c-.34.45-.68.88-1,1.32L410.25,230.23Q410.78,229.57,411.27,228.91Z"/><path class="cls-13" d="M413.45,225.73l117.07,47.58c-.3.46-.6.93-.91,1.39L412.54,227.11C412.86,226.66,413.16,226.19,413.45,225.73Z"/><path class="cls-13" d="M415.39,222.38,536.58,263c-.26.48-.53,1-.8,1.44l-121.2-40.65Q415,223.1,415.39,222.38Z"/><path class="cls-13" d="M298,222.29l-123.08,37-.75-1.47L297.2,220.82Q297.56,221.56,298,222.29Z"/><path class="cls-13" d="M519.92,283.05v-1.81l3.75,1.8c-.34.45-.68.88-1,1.32l-2.72-1.31Zm0-12.29V269l10.6,4.31c-.3.46-.6.93-.91,1.39l-9.69-3.94Zm0-11.61v-1.71L536.58,263c-.26.48-.53,1-.8,1.44Zm0-1.71v1.71l-10.6-3.56.4-.72.35-.74,9.85,3.31Zm0,11.56v1.76l-12.82-5.21v-1.76L519.92,269Zm0,12.24v1.81l-12.82-6.17v-1.81l12.82,6.17ZM507.1,301.49v-1.33l.82.53-.82.8Zm0-12.49v-1.88l9,5.06L515,293.43Zm0-25.21v1.76l-3.05-1.24c.31-.46.61-.92.91-1.39l2.14.87Zm0,11.28v1.81l-9-4.34c.35-.43.69-.87,1-1.32l8,3.85Zm0,12.05V289l-11.71-6.58v-1.88l11.71,6.58Zm0,13v1.33l-.39.37-11.32-7.34v-2l11.71,7.6Zm-11.71,7.61v-2.06l3.84,2.85-1.3,1.1Zm0-27.23v1.88l-3.83-2.15,1.13-1.25,2.7,1.52Zm0,12v2l-8.09-5.26v-2l8.09,5.26Zm0,13.15v2.06l-8.09-6v-2.06l8.09,6Zm-8.09,9.89v-2.17l2.79,2.37-1.37,1Zm0-28.3v2l-2.79-1.81,1.21-1.17,1.58,1Zm0,12.39v2.06l-8.49-6.33v-2.06l8.49,6.33Zm0,13.74v2.17l-8.49-7.22v-2.17l8.49,7.22ZM478.81,323v-2.32l1.79,1.74-1.44.92Zm0-29.62v2.06L477,294.09l1.3-1.09.49.36Zm0,12.85v2.17l-8.82-7.5v-1.3l.55-.4,8.27,7Zm0,14.45V323L470,314.43v-2.32l8.82,8.55ZM470,328.84v-1.38l.82.91Zm0-29.26v1.3l-.83-.7.83-.6Zm0,12.53v2.32l-4.08-3.95v-2.32l4.08,3.95Zm0,15.35v1.38l-.68.37-3.4-3.76V323Zm-4.08-19.3v2.32l-4.9-4.75,1.43-.93,3.47,3.36Zm0,14.79v2.5l-9.21-10.19v-2.5L465.91,323Zm-9.21,8.32v-2.71l4.08,5.17-1.54.76Zm0-18.51v2.5l-4.09-4.52q.75-.4,1.5-.84l2.59,2.86Zm0,15.8v2.71l-9.4-11.89v-2.71l9.4,11.89Zm-9.4,8.16v-3l3.27,4.76-1.59.67Zm0-20.05v2.71L444,315.24l1.54-.76,1.74,2.19Zm0,17.07v3l-9.56-13.91v-3l9.56,13.91Zm-9.56,8.11v-3.32l2.46,4.16-1.61.59Zm0-22v3l-2.46-3.58,1.58-.68.88,1.28Zm0,18.7-9.67-16.33v3.32l9.67,16.33v-3.32Zm-9.67,8.28V343l1.66,3.29-1.64.52Zm0-24.61v3.32l-1.66-2.8,1.62-.59,0,.07Zm0,20.83-9-17.8-.79.25v2l9.76,19.37V343Zm-9.76,6.61v-2.26l.86,2Zm0-24.16v2l-.85-1.69.85-.27Zm0,21.9v2.26l-.81.21-9-21.41v-.14l1.61-.43,8.21,19.51ZM408.49,352v-.17l.05.16Zm0-23.69v.14l-.06-.13Zm0,23.52V352l-1.63.35-7.5-21.91,1.68-.36,7.45,21.75Zm-108.28-.89v-1.31l7.84-20.53,1.67.4-8.3,21.73-1.21-.29Zm0-22.78V327l.45.13-.45,1Zm18.62,3.23-6.74,22.07-1.69-.32,6.73-22.07,1.7.32Zm9.12,1.46-5.15,22.34-1.71-.25,5.15-22.33,1.71.24Zm9.14,1.06-3.57,22.52-1.72-.17,3.58-22.52,1.71.17Zm9.15.64-2,22.64-1.72-.09,2-22.64,1.72.09Zm9.15.25-.4,22.69h-1.72l.41-22.69Zm9.16-.14,1.17,22.67-1.71.07-1.18-22.68,1.72-.06Zm9.14-.53,2.77,22.59-1.72.13L372,334.25l1.71-.13Zm9.14-.94,4.34,22.44-1.7.2-4.35-22.43,1.71-.21Zm9.12-1.34,5.93,22.21-1.71.28-5.92-22.21ZM300.21,327v1.12l-9.42,20.33-.39-.12v-3.08l8.61-18.6,1.2.35Zm0,22.59v1.31l-.46-.11.46-1.2Zm-9.81-22.95V324l1.26.43Zm0-2.72v2.72l-9.73,17.74v-3.52L290,323.82l.37.13Zm0,21.33v3.08l-1.26-.36,1.26-2.72Zm-9.73-20.93,2.07-3.22-1.6-.64-.47.73Zm0-3.13v3.13l-9.62,15v-3.14l9.62-15Zm0,19.67v3.52l-.43.8-1.63-.56,2.06-3.76Zm-9.62-19.61,2.87-3.88-1.56-.72-1.31,1.77Zm0-2.83v2.83l-9.5,12.85V331.3l9.5-12.85Zm0,17.81v3.14l-1.28,2-1.59-.64,2.87-4.49Zm-9.5-18.75v-2.6l2.16-2.54,1.52.79Zm0-2.6v2.6L249.25,332l-1.18-.61v-.59l13.48-15.91Zm0,16.39-3.68,5,1.56.72,2.12-2.87V331.3Zm-13.48-13.95,8.65-8.93-1.47-.89L248.07,315v2.4Zm0-13.89v-.55l.35.23Zm0-.55v.55l-9,8.13v-2.24l7.91-7.17,1.06.73Zm0,12v2.4l-8.8,9.1-.17-.1v-2.13l9-9.27Zm0,15.87v.59l-.34-.18.34-.41Zm-9-32.46v-2.05l1.29,1Zm0-2.05v2.05l-8.68,6.9v-2.12l8.63-6.86,0,0Zm0,13v2.24l-8.68,7.87v-2.24l8.68-7.87Zm0,14.87v2.13l-1.3-.79,1.3-1.34Zm-8.68-31.67v-2l1-.7L232.7,291Zm0-2v2l-8.32,5.77v-2l8.32-5.78Zm0,12.6v2.12l-8.32,6.61v-2.12l8.32-6.61Zm0,14.08v2.24l-.88.79-1.41-1,2.29-2.07ZM222.1,286v-1.92l2.12-1.28c.39.41.78.81,1.18,1.21Zm0-1.92V286L210,293.36v-1.92l12.12-7.32Zm0,12.2v2l-11,7.63-1.14-1v-.21l12.12-8.41Zm0,13.43v2.12l-2,1.55-1.33-1.05,3.3-2.62ZM210,281.06v-1.84l7.51-3.91c.36.43.71.86,1.08,1.29L210,281.06Zm0-11.42v-1.79l1.35-.59,1,1.35Zm-3.32-9.51-10.2,3.77v-1.74l9.35-3.45c.28.47.57.94.85,1.42Zm3.32,7.72v1.79l-13.52,6v-1.78l13.52-6Zm0,11.37v1.84l-13.52,7v-1.85l13.52-7Zm0,12.22v1.92l-7.42,4.47-1.17-1.21,8.59-5.18Zm0,13.29v.21l-.13-.12.13-.09Zm-13.52-52v-1.69l4.58-1.38.22.5c.16.33.33.66.49,1Zm0,11.14-15.83,5.85-.85-1.42,16.68-6.17v1.74Zm0-12.83v1.69l-21.59,6.48-.75-1.47,22.34-6.7Zm0,22.77v1.78l-9.24,4.09c-.32-.45-.64-.91-1-1.36l10.21-4.51Zm0,12.41v1.85l-1.9,1c-.36-.42-.71-.86-1.07-1.28Z"/><path class="cls-14" d="M206.66,260.13l-26,9.62-.85-1.42,26-9.62c.28.47.57.94.85,1.42Zm5.64,8.48-25.08,11.1c-.32-.45-.64-.91-1-1.36l25.08-11.09,1,1.35Zm6.27,8-24,12.48c-.36-.42-.71-.86-1.07-1.28l24-12.49c.36.43.71.86,1.08,1.29Zm6.83,7.45-22.84,13.78-1.17-1.21,22.83-13.78c.39.41.78.81,1.18,1.21Zm7.3,6.91-21.58,15-1.27-1.13,21.58-15L232.7,291Zm7.69,6.37-20.26,16.09-1.33-1.05,20.25-16.09,1.34,1.05Zm8,5.81-18.88,17.11-1.41-1L247,302.18l1.41,1Zm8.3,5.28-17.45,18-1.47-.89,17.45-18,1.47.89Zm8.51,4.74-16,18.86c-.51-.26-1-.52-1.52-.79l16-18.86,1.52.79Zm8.69,4.24L259.43,337l-1.56-.72,14.49-19.6,1.56.72Zm8.82,3.73-13,20.26-1.59-.64,13-20.26,1.6.64Zm8.92,3.25-11.42,20.83-1.63-.56L290,323.82l1.63.56Zm9,2.78-9.87,21.32-1.65-.48L299,326.68l1.65.48Zm9.06,2.33-8.3,21.73-1.67-.4,8.3-21.73,1.67.4Zm9.11,1.89-6.74,22.07-1.69-.32,6.73-22.07,1.7.32Zm9.12,1.46-5.15,22.34-1.71-.25,5.15-22.33,1.71.24Zm9.14,1.06-3.57,22.52-1.72-.17,3.58-22.52,1.71.17Zm9.15.64-2,22.64-1.72-.09,2-22.64,1.72.09Zm9.15.25-.4,22.69h-1.72l.41-22.69Zm9.16-.14,1.17,22.67-1.71.07-1.18-22.68,1.72-.06Zm9.14-.53,2.77,22.59-1.72.13L372,334.25l1.71-.13Zm9.14-.94,4.34,22.44-1.7.2-4.35-22.43,1.71-.21Zm9.12-1.34,5.93,22.21-1.71.28-5.92-22.21,1.7-.28Zm9.09-1.77,7.5,21.91-1.68.36-7.5-21.91,1.68-.36Zm9.06-2.2,9.07,21.54-1.67.44-9.07-21.54,1.67-.44Zm9-2.64,10.63,21.09-1.64.52-10.63-21.09,1.64-.52Zm8.93-3.1,12.17,20.56-1.61.59-12.18-20.56,1.62-.59Zm8.83-3.58,13.71,19.95-1.59.67-13.7-19.94,1.58-.68Zm8.7-4.07,15.22,19.25-1.54.76L444,315.24l1.54-.76Zm8.55-4.58,16.7,18.47-1.5.84-16.7-18.47q.75-.4,1.5-.84Zm8.33-5.1,18.16,17.6-1.44.92L461,305.73l1.43-.93Zm8.1-5.62,19.55,16.62-1.37,1-19.56-16.63,1.38-1Zm7.78-6.18,20.91,15.56-1.3,1.1L477,294.09l1.3-1.09Zm7.4-6.72,22.2,14.41-1.21,1.17-22.2-14.41,1.21-1.17Zm7-7.26,23.41,13.16L515,293.43l-23.42-13.16,1.13-1.25Zm6.44-7.8L523.67,283c-.34.45-.68.88-1,1.32L498.1,272.54c.35-.43.69-.87,1-1.32Zm5.83-8.3,25.56,10.39c-.3.46-.6.93-.91,1.39l-25.56-10.39c.31-.46.61-.92.91-1.39Zm5.11-8.79,26.51,8.9c-.26.48-.53,1-.8,1.44l-26.46-8.88.4-.72.35-.74Zm-308.32-3-26.88,8.07-.75-1.47L201,249.69l.22.5C201.42,250.52,201.59,250.85,201.75,251.17Z"/><text class="cls-15" transform="translate(256.26 137.97) scale(1.07 1)">Hola!</text><rect class="cls-16" x="344.4" y="198.35" width="6.9" height="32.36"/><rect class="cls-16" x="360.96" y="198.35" width="6.9" height="32.36"/><rect class="cls-16" x="344.4" y="228.22" width="23.45" height="21.99"/></g></g></svg>