<?xml version="1.0" encoding="utf-8"?>
<!-- Generator: Adobe Illustrator 23.0.1, SVG Export Plug-In . SVG Version: 6.00 Build 0)  -->
<svg version="1.1" id="Layer_1" xmlns="http://www.w3.org/2000/svg" xmlns:xlink="http://www.w3.org/1999/xlink" x="0px" y="0px"
	 viewBox="0 0 1920 1080" style="enable-background:new 0 0 1920 1080;" xml:space="preserve">
<style type="text/css">
	.st0{fill-rule:evenodd;clip-rule:evenodd;fill:#33B59B;}
	.st1{fill-rule:evenodd;clip-rule:evenodd;fill:#115447;}
	.st2{fill-rule:evenodd;clip-rule:evenodd;fill:#454545;}
	.st3{fill-rule:evenodd;clip-rule:evenodd;fill:#FFFFFF;}
	.st4{fill-rule:evenodd;clip-rule:evenodd;fill:#A6B3B0;}
	.st5{fill-rule:evenodd;clip-rule:evenodd;fill:#1E806C;}
	.st6{fill-rule:evenodd;clip-rule:evenodd;fill:none;stroke:#808F8C;stroke-width:6.6804;stroke-miterlimit:22.9256;}
	.st7{fill-rule:evenodd;clip-rule:evenodd;fill:#D8E6E3;}
	.st8{fill-rule:evenodd;clip-rule:evenodd;fill:#808F8C;}
	.st9{fill:#D8E6E3;}
	.st10{fill:none;stroke:#D8E6E3;stroke-width:1.67;stroke-miterlimit:22.9256;}
	.st11{fill:#454545;}
	.st12{font-family:'VeteranTypewriter';}
	.st13{font-size:70.3858px;}
	.st14{fill:#808F8C;}
</style>
<path class="st0" d="M692.3,389.9h44.8c11.8,0,17.5,1.5,21.5,20.2c18.9,87.3,106.1,153.7,211.8,153.7c106,0,194.2-66.7,211.9-154.5
	c3-15.1,13-19.4,19.7-19.4h46.5c12.9,0,23.5,9.9,23.5,22v203.9c0,12.1-10.6,22-23.5,22H692.3c-12.9,0-23.5-9.9-23.5-22V412
	C668.8,399.8,679.4,389.9,692.3,389.9z"/>
<path class="st0" d="M728,261.6c149.1,0,335,0,484.9,0c11.3,0,20.5,8.6,20.5,19.2v177.7c0,10.6-9.2,19.2-20.5,19.2H728
	c-11.3,0-20.5-8.6-20.5-19.2V280.8C707.5,270.3,716.7,261.6,728,261.6z"/>
<path class="st1" d="M738.6,275c139.3,0,323.7,0,463.6,0c10.5,0,19.1,8.1,19.1,17.9v166c0,9.9-8.6,17.9-19.1,17.9H738.6
	c-10.5,0-19.1-8.1-19.1-17.9v-166C719.5,283,728.1,275,738.6,275z"/>
<rect x="642.3" y="355" class="st2" width="656.2" height="56.2"/>
<rect x="731.9" y="193" class="st3" width="477" height="265.4"/>
<polygon class="st1" points="1272,411.3 1272,615.8 1260.9,666.1 970.4,748.2 680.9,667 668.8,615.8 668.8,411.3 "/>
<path class="st4" d="M921.4,411.3h92.9l135.6,45.5c-29.7,55.1-98.9,93.8-179.5,93.8c-83.3,0-154.3-41.2-182.3-99.2L921.4,411.3z"/>
<path class="st0" d="M1259.5,672.9l-37.1,114c-17,52.1-53.6,61.2-73.4,61.2H793.3c-25.9,0-58.6-15.9-73.4-61.2l-39-119.8
	c-3.8-11.6,1.6-18.6,17.8-18.6h545.5C1257.9,648.4,1264.1,658.8,1259.5,672.9z"/>
<path class="st5" d="M799,823.3c-29.7,0-37.2-3.8-49.1-37.1l-35.5-99.1c-3-8.5,1.1-14,12-14c162.8,0,325.5,0,488.3,0
	c10.9,0,15,5.5,12,14l-35.5,99.1c-11.9,33.3-23.6,37.1-49.1,37.1H799z"/>
<path class="st2" d="M804.3,823.3c-14.5,0-40.2-2-45.6-28.9l-15.7-77c-1.4-6.9,0.9-10.9,9.5-10.9h435.8c8.6,0,10.9,4,9.5,10.9
	l-15.7,77c-5.5,26.8-31.3,28.9-45.6,28.9H804.3z"/>
<path class="st0" d="M692.3,396.1h44.8c11.8,0,17.5,1.5,21.5,20.2c18.9,87.3,106.1,147.6,211.8,147.6c106,0,194.2-60.5,211.9-148.3
	c3-15.1,13-19.4,19.7-19.4h46.5c12.9,0,23.5,9.9,23.5,22v197.7c0,12.1-10.6,22-23.5,22H692.3c-12.9,0-23.5-9.9-23.5-22V418.1
	C668.8,406,679.4,396.1,692.3,396.1z"/>
<path class="st5" d="M738.1,396.1c11.1,0.1,16.6,2.1,20.5,20.2c18.9,87.3,106.1,147.6,211.8,147.6c106,0,194.2-60.5,211.9-148.3
	c3-15.1,13-19.4,19.7-19.4h0.7c-7.4,107.1-108.6,185.8-232.3,185.8C846.7,581.8,745.5,503.2,738.1,396.1z"/>
<ellipse class="st1" cx="623.7" cy="383.1" rx="9.9" ry="28.1"/>
<rect x="623.7" y="338.3" class="st0" width="18.6" height="89.7"/>
<ellipse class="st1" cx="1317.1" cy="383.1" rx="9.9" ry="28.1"/>
<rect x="1298.5" y="338.3" class="st0" width="18.6" height="89.7"/>
<line class="st6" x1="642.3" y1="383.1" x2="1298.5" y2="383.1"/>
<g>
	<line class="st6" x1="781" y1="365.2" x2="781" y2="401.1"/>
	<line class="st6" x1="1159.7" y1="365.2" x2="1159.7" y2="401.1"/>
</g>
<g>
	<path class="st7" d="M784.2,712.9h15.3c2.7,0,5,2.1,5,4.7v11.9c0,2.6-2.2,4.7-5,4.7h-15.3c-2.7,0-5-2.1-5-4.7v-11.9
		C779.2,715,781.4,712.9,784.2,712.9z"/>
	<path class="st7" d="M767.8,740.5H783c2.7,0,5,2.1,5,4.7v11.9c0,2.6-2.2,4.7-5,4.7h-15.3c-2.7,0-5-2.1-5-4.7v-11.9
		C762.8,742.6,765,740.5,767.8,740.5z"/>
	<path class="st7" d="M784.2,768.1h15.3c2.7,0,5,2.1,5,4.7v11.9c0,2.6-2.2,4.7-5,4.7h-15.3c-2.7,0-5-2.1-5-4.7v-11.9
		C779.2,770.2,781.4,768.1,784.2,768.1z"/>
	<path class="st7" d="M816.7,712.9h15.3c2.7,0,5,2.1,5,4.7v11.9c0,2.6-2.2,4.7-5,4.7h-15.3c-2.7,0-5-2.1-5-4.7v-11.9
		C811.7,715,813.9,712.9,816.7,712.9z"/>
	<path class="st7" d="M800.3,740.5h15.3c2.7,0,5,2.1,5,4.7v11.9c0,2.6-2.2,4.7-5,4.7h-15.3c-2.7,0-5-2.1-5-4.7v-11.9
		C795.3,742.6,797.5,740.5,800.3,740.5z"/>
	<path class="st7" d="M816.7,768.1h15.3c2.7,0,5,2.1,5,4.7v11.9c0,2.6-2.2,4.7-5,4.7h-15.3c-2.7,0-5-2.1-5-4.7v-11.9
		C811.7,770.2,813.9,768.1,816.7,768.1z"/>
	<path class="st7" d="M800.3,795.6h15.3c2.7,0,5,2.1,5,4.7v11.9c0,2.6-2.2,4.7-5,4.7h-15.3c-2.7,0-5-2.1-5-4.7v-11.9
		C795.3,797.7,797.5,795.6,800.3,795.6z"/>
	<path class="st7" d="M849.2,712.9h15.3c2.7,0,5,2.1,5,4.7v11.9c0,2.6-2.2,4.7-5,4.7h-15.3c-2.7,0-5-2.1-5-4.7v-11.9
		C844.2,715,846.4,712.9,849.2,712.9z"/>
	<path class="st7" d="M832.8,740.5H848c2.7,0,5,2.1,5,4.7v11.9c0,2.6-2.2,4.7-5,4.7h-15.3c-2.7,0-5-2.1-5-4.7v-11.9
		C827.8,742.6,830,740.5,832.8,740.5z"/>
	<path class="st7" d="M849.2,768.1h15.3c2.7,0,5,2.1,5,4.7v11.9c0,2.6-2.2,4.7-5,4.7h-15.3c-2.7,0-5-2.1-5-4.7v-11.9
		C844.2,770.2,846.4,768.1,849.2,768.1z"/>
	<path class="st7" d="M881.7,712.9h15.3c2.7,0,5,2.1,5,4.7v11.9c0,2.6-2.2,4.7-5,4.7h-15.3c-2.7,0-5-2.1-5-4.7v-11.9
		C876.7,715,878.9,712.9,881.7,712.9z"/>
	<path class="st7" d="M865.3,740.5h15.3c2.7,0,5,2.1,5,4.7v11.9c0,2.6-2.2,4.7-5,4.7h-15.3c-2.7,0-5-2.1-5-4.7v-11.9
		C860.3,742.6,862.5,740.5,865.3,740.5z"/>
	<path class="st7" d="M881.7,768.1h15.3c2.7,0,5,2.1,5,4.7v11.9c0,2.6-2.2,4.7-5,4.7h-15.3c-2.7,0-5-2.1-5-4.7v-11.9
		C876.7,770.2,878.9,768.1,881.7,768.1z"/>
	<path class="st7" d="M914.2,712.9h15.3c2.7,0,5,2.1,5,4.7v11.9c0,2.6-2.2,4.7-5,4.7h-15.3c-2.7,0-5-2.1-5-4.7v-11.9
		C909.2,715,911.4,712.9,914.2,712.9z"/>
	<path class="st7" d="M897.8,740.5H913c2.7,0,5,2.1,5,4.7v11.9c0,2.6-2.2,4.7-5,4.7h-15.3c-2.7,0-5-2.1-5-4.7v-11.9
		C892.8,742.6,895,740.5,897.8,740.5z"/>
	<path class="st7" d="M914.2,768.1h15.3c2.7,0,5,2.1,5,4.7v11.9c0,2.6-2.2,4.7-5,4.7h-15.3c-2.7,0-5-2.1-5-4.7v-11.9
		C909.2,770.2,911.4,768.1,914.2,768.1z"/>
	<path class="st7" d="M946.7,712.9h15.3c2.7,0,5,2.1,5,4.7v11.9c0,2.6-2.2,4.7-5,4.7h-15.3c-2.7,0-5-2.1-5-4.7v-11.9
		C941.7,715,943.9,712.9,946.7,712.9z"/>
	<path class="st7" d="M930.3,740.5h15.3c2.7,0,5,2.1,5,4.7v11.9c0,2.6-2.2,4.7-5,4.7h-15.3c-2.7,0-5-2.1-5-4.7v-11.9
		C925.3,742.6,927.5,740.5,930.3,740.5z"/>
	<path class="st7" d="M946.7,768.1h15.3c2.7,0,5,2.1,5,4.7v11.9c0,2.6-2.2,4.7-5,4.7h-15.3c-2.7,0-5-2.1-5-4.7v-11.9
		C941.7,770.2,943.9,768.1,946.7,768.1z"/>
	<path class="st7" d="M979.2,712.9h15.3c2.7,0,5,2.1,5,4.7v11.9c0,2.6-2.2,4.7-5,4.7h-15.3c-2.7,0-5-2.1-5-4.7v-11.9
		C974.2,715,976.4,712.9,979.2,712.9z"/>
	<path class="st7" d="M962.8,740.5H978c2.7,0,5,2.1,5,4.7v11.9c0,2.6-2.2,4.7-5,4.7h-15.3c-2.7,0-5-2.1-5-4.7v-11.9
		C957.8,742.6,960,740.5,962.8,740.5z"/>
	<path class="st7" d="M979.2,768.1h15.3c2.7,0,5,2.1,5,4.7v11.9c0,2.6-2.2,4.7-5,4.7h-15.3c-2.7,0-5-2.1-5-4.7v-11.9
		C974.2,770.2,976.4,768.1,979.2,768.1z"/>
	<path class="st7" d="M1011.7,712.9h15.3c2.7,0,5,2.1,5,4.7v11.9c0,2.6-2.2,4.7-5,4.7h-15.3c-2.7,0-5-2.1-5-4.7v-11.9
		C1006.7,715,1008.9,712.9,1011.7,712.9z"/>
	<path class="st7" d="M995.3,740.5h15.3c2.7,0,5,2.1,5,4.7v11.9c0,2.6-2.2,4.7-5,4.7h-15.3c-2.7,0-5-2.1-5-4.7v-11.9
		C990.3,742.6,992.5,740.5,995.3,740.5z"/>
	<path class="st7" d="M1011.7,768.1h15.3c2.7,0,5,2.1,5,4.7v11.9c0,2.6-2.2,4.7-5,4.7h-15.3c-2.7,0-5-2.1-5-4.7v-11.9
		C1006.7,770.2,1008.9,768.1,1011.7,768.1z"/>
	<path class="st7" d="M1044.2,712.9h15.3c2.7,0,5,2.1,5,4.7v11.9c0,2.6-2.2,4.7-5,4.7h-15.3c-2.7,0-5-2.1-5-4.7v-11.9
		C1039.2,715,1041.4,712.9,1044.2,712.9z"/>
	<path class="st7" d="M1027.8,740.5h15.3c2.7,0,5,2.1,5,4.7v11.9c0,2.6-2.2,4.7-5,4.7h-15.3c-2.7,0-5-2.1-5-4.7v-11.9
		C1022.8,742.6,1025,740.5,1027.8,740.5z"/>
	<path class="st7" d="M1044.2,768.1h15.3c2.7,0,5,2.1,5,4.7v11.9c0,2.6-2.2,4.7-5,4.7h-15.3c-2.7,0-5-2.1-5-4.7v-11.9
		C1039.2,770.2,1041.4,768.1,1044.2,768.1z"/>
	<path class="st7" d="M1076.7,712.9h15.3c2.7,0,5,2.1,5,4.7v11.9c0,2.6-2.2,4.7-5,4.7h-15.3c-2.7,0-5-2.1-5-4.7v-11.9
		C1071.7,715,1073.9,712.9,1076.7,712.9z"/>
	<path class="st7" d="M1060.3,740.5h15.3c2.7,0,5,2.1,5,4.7v11.9c0,2.6-2.2,4.7-5,4.7h-15.3c-2.7,0-5-2.1-5-4.7v-11.9
		C1055.3,742.6,1057.5,740.5,1060.3,740.5z"/>
	<path class="st7" d="M1076.7,768.1h15.3c2.7,0,5,2.1,5,4.7v11.9c0,2.6-2.2,4.7-5,4.7h-15.3c-2.7,0-5-2.1-5-4.7v-11.9
		C1071.7,770.2,1073.9,768.1,1076.7,768.1z"/>
	<path class="st7" d="M1109.2,712.9h15.3c2.7,0,5,2.1,5,4.7v11.9c0,2.6-2.2,4.7-5,4.7h-15.3c-2.7,0-5-2.1-5-4.7v-11.9
		C1104.2,715,1106.4,712.9,1109.2,712.9z"/>
	<path class="st7" d="M1092.8,740.5h15.3c2.7,0,5,2.1,5,4.7v11.9c0,2.6-2.2,4.7-5,4.7h-15.3c-2.7,0-5-2.1-5-4.7v-11.9
		C1087.8,742.6,1090,740.5,1092.8,740.5z"/>
	<path class="st7" d="M1109.2,768.1h15.3c2.7,0,5,2.1,5,4.7v11.9c0,2.6-2.2,4.7-5,4.7h-15.3c-2.7,0-5-2.1-5-4.7v-11.9
		C1104.2,770.2,1106.4,768.1,1109.2,768.1z"/>
	<path class="st7" d="M832.8,795.6H1108c2.7,0,5,2.1,5,4.7v11.9c0,2.6-2.2,4.7-5,4.7H832.8c-2.7,0-5-2.1-5-4.7v-11.9
		C827.8,797.7,830,795.6,832.8,795.6z"/>
	<path class="st7" d="M1141.7,712.9h15.3c2.7,0,5,2.1,5,4.7v11.9c0,2.6-2.2,4.7-5,4.7h-15.3c-2.7,0-5-2.1-5-4.7v-11.9
		C1136.7,715,1138.9,712.9,1141.7,712.9z"/>
	<path class="st7" d="M1125.3,740.5h15.3c2.7,0,5,2.1,5,4.7v11.9c0,2.6-2.2,4.7-5,4.7h-15.3c-2.7,0-5-2.1-5-4.7v-11.9
		C1120.3,742.6,1122.5,740.5,1125.3,740.5z"/>
	<path class="st7" d="M1141.7,768.1h15.3c2.7,0,5,2.1,5,4.7v11.9c0,2.6-2.2,4.7-5,4.7h-15.3c-2.7,0-5-2.1-5-4.7v-11.9
		C1136.7,770.2,1138.9,768.1,1141.7,768.1z"/>
	<path class="st7" d="M1125.3,795.6h15.3c2.7,0,5,2.1,5,4.7v11.9c0,2.6-2.2,4.7-5,4.7h-15.3c-2.7,0-5-2.1-5-4.7v-11.9
		C1120.3,797.7,1122.5,795.6,1125.3,795.6z"/>
	<path class="st7" d="M1157.8,740.5h15.3c2.7,0,5,2.1,5,4.7v11.9c0,2.6-2.2,4.7-5,4.7h-15.3c-2.7,0-5-2.1-5-4.7v-11.9
		C1152.8,742.6,1155,740.5,1157.8,740.5z"/>
</g>
<path class="st8" d="M1123.5,447.9c-25.3,47-84.3,79.9-153,79.9c-71,0-131.6-35.1-155.4-84.6l106.4-31.9h92.9L1123.5,447.9z"/>
<path class="st1" d="M1041.4,420.3c-11.7,21.8-39,37-70.9,37c-32.9,0-60.9-16.3-72-39.2v-6.9h142.7L1041.4,420.3z"/>
<path class="st4" d="M1041.4,420.3c-11.7,21.8-39,37-70.9,37c-32.9,0-60.9-16.3-72-39.2l12.8-3.8c9.1,18.8,32.2,32.2,59.2,32.2
	c26.2,0,48.7-12.6,58.3-30.5L1041.4,420.3z"/>
<g>
	<path class="st9" d="M913.7,418.7l-119.2,44.1c-0.3-0.5-0.6-0.9-0.8-1.4l119.2-44.1C913.1,417.7,913.4,418.2,913.7,418.7z"/>
	<path class="st9" d="M915.9,421.9L801,472.7c-0.3-0.5-0.6-0.9-1-1.4l114.8-50.8C915.2,421,915.5,421.5,915.9,421.9z"/>
	<path class="st9" d="M918.3,424.9l-109.9,57.2c-0.4-0.4-0.7-0.9-1.1-1.3l109.9-57.2C917.6,424.1,917.9,424.5,918.3,424.9z"/>
	<path class="st9" d="M920.9,427.7l-104.6,63.1c-0.4-0.4-0.8-0.8-1.2-1.2l104.6-63.1C920.2,426.9,920.5,427.3,920.9,427.7z"/>
	<path class="st9" d="M923.8,430.3L824.9,499c-0.4-0.4-0.8-0.7-1.3-1.1l98.9-68.6C922.9,429.6,923.3,429.9,923.8,430.3z"/>
	<path class="st9" d="M926.7,432.7l-92.8,73.7c-0.4-0.3-0.9-0.7-1.3-1.1l92.8-73.7C925.8,432,926.3,432.4,926.7,432.7z"/>
	<path class="st9" d="M929.8,434.9l-86.5,78.4c-0.5-0.3-0.9-0.6-1.4-1l86.5-78.4C928.9,434.3,929.3,434.6,929.8,434.9z"/>
	<path class="st9" d="M933,436.9l-79.9,82.6c-0.5-0.3-1-0.6-1.5-0.9l79.9-82.6C932,436.3,932.5,436.6,933,436.9z"/>
	<path class="st9" d="M936.3,438.6L863,525c-0.5-0.3-1-0.5-1.5-0.8l73.2-86.4C935.2,438.1,935.7,438.4,936.3,438.6z"/>
	<path class="st9" d="M939.6,440.2L873.2,530c-0.5-0.2-1-0.5-1.6-0.7l66.3-89.8C938.5,439.7,939.1,440,939.6,440.2z"/>
	<path class="st9" d="M943,441.6l-59.4,92.8c-0.5-0.2-1.1-0.4-1.6-0.6l59.4-92.8C941.9,441.2,942.4,441.4,943,441.6z"/>
	<path class="st9" d="M946.4,442.8L894,538.2c-0.5-0.2-1.1-0.4-1.6-0.6l52.3-95.4C945.3,442.4,945.8,442.6,946.4,442.8z"/>
	<path class="st9" d="M949.8,443.8l-45.2,97.7c-0.6-0.2-1.1-0.3-1.7-0.5l45.2-97.7C948.7,443.5,949.2,443.7,949.8,443.8z"/>
	<path class="st9" d="M953.3,444.7l-38,99.5c-0.6-0.1-1.1-0.3-1.7-0.4l38-99.5C952.1,444.4,952.7,444.6,953.3,444.7z"/>
	<path class="st9" d="M956.7,445.4l-30.8,101.1c-0.6-0.1-1.1-0.2-1.7-0.3L955,445.1C955.6,445.2,956.2,445.3,956.7,445.4z"/>
	<path class="st9" d="M960.2,445.9l-23.6,102.3c-0.6-0.1-1.1-0.2-1.7-0.2l23.6-102.3C959.1,445.8,959.6,445.8,960.2,445.9z"/>
	<path class="st9" d="M963.7,446.3l-16.4,103.2c-0.6-0.1-1.1-0.1-1.7-0.2L962,446.1C962.5,446.2,963.1,446.2,963.7,446.3z"/>
	<path class="st9" d="M967.2,446.5L958,550.2c-0.6,0-1.1-0.1-1.7-0.1l9.1-103.7C966,446.4,966.6,446.5,967.2,446.5z"/>
	<path class="st9" d="M970.6,446.6l-1.9,103.9c-0.6,0-1.1,0-1.7,0l1.9-103.9c0.5,0,1,0,1.5,0L970.6,446.6z"/>
	<path class="st9" d="M974.1,446.5l5.4,103.9c-0.6,0-1.1,0-1.7,0.1l-5.4-103.9C973,446.5,973.6,446.5,974.1,446.5z"/>
	<path class="st9" d="M977.6,446.2l12.6,103.5c-0.6,0-1.1,0.1-1.7,0.1l-12.6-103.5C976.5,446.3,977,446.3,977.6,446.2z"/>
	<path class="st9" d="M981.1,445.9l19.9,102.8c-0.6,0.1-1.1,0.1-1.7,0.2l-19.9-102.8C979.9,446,980.5,445.9,981.1,445.9z"/>
	<path class="st9" d="M984.5,445.3l27.1,101.7c-0.6,0.1-1.1,0.2-1.7,0.3l-27.1-101.7C983.4,445.5,984,445.4,984.5,445.3z"/>
	<path class="st9" d="M988,444.6l34.3,100.4c-0.6,0.1-1.1,0.2-1.7,0.4L986.3,445C986.9,444.9,987.4,444.8,988,444.6z"/>
	<path class="st9" d="M991.4,443.8l41.5,98.7c-0.6,0.1-1.1,0.3-1.7,0.4l-41.5-98.7C990.3,444.1,990.9,443.9,991.4,443.8z"/>
	<path class="st9" d="M994.8,442.7l48.7,96.6c-0.5,0.2-1.1,0.4-1.6,0.5l-48.7-96.6C993.7,443.1,994.3,442.9,994.8,442.7z"/>
	<path class="st9" d="M998.2,441.5l55.8,94.2c-0.5,0.2-1.1,0.4-1.6,0.6l-55.8-94.2C997.2,441.9,997.7,441.7,998.2,441.5z"/>
	<path class="st9" d="M1001.6,440.1l62.8,91.4c-0.5,0.2-1.1,0.5-1.6,0.7l-62.8-91.4C1000.5,440.6,1001,440.4,1001.6,440.1z"/>
	<path class="st9" d="M1004.9,438.6l69.7,88.2c-0.5,0.3-1,0.5-1.5,0.8l-69.7-88.2C1003.8,439.1,1004.4,438.8,1004.9,438.6z"/>
	<path class="st9" d="M1008.1,436.8l76.5,84.6c-0.5,0.3-1,0.6-1.5,0.8l-76.5-84.6C1007.1,437.4,1007.6,437.1,1008.1,436.8z"/>
	<path class="st9" d="M1011.3,434.8l83.1,80.6c-0.5,0.3-1,0.6-1.4,0.9l-83.1-80.6C1010.3,435.4,1010.8,435.1,1011.3,434.8z"/>
	<path class="st9" d="M1014.3,432.7l89.6,76.2c-0.5,0.3-0.9,0.7-1.4,1l-89.6-76.2C1013.4,433.3,1013.9,433,1014.3,432.7z"/>
	<path class="st9" d="M1017.2,430.3l95.8,71.3c-0.4,0.4-0.9,0.7-1.3,1.1l-95.8-71.3C1016.4,431,1016.8,430.6,1017.2,430.3z"/>
	<path class="st9" d="M1020,427.7l101.7,66c-0.4,0.4-0.8,0.8-1.2,1.2l-101.7-66C1019.2,428.5,1019.6,428.1,1020,427.7z"/>
	<path class="st9" d="M1022.6,424.9l107.2,60.3c-0.4,0.4-0.7,0.8-1.1,1.2l-107.2-60.3C1021.9,425.7,1022.3,425.3,1022.6,424.9z"/>
	<path class="st9" d="M1025.1,421.9l112.4,54.1c-0.3,0.4-0.7,0.9-1,1.3L1024,423.2C1024.4,422.8,1024.7,422.4,1025.1,421.9z"/>
	<path class="st9" d="M1027.2,418.7l117.1,47.6c-0.3,0.5-0.6,0.9-0.9,1.4l-117.1-47.6C1026.7,419.7,1027,419.2,1027.2,418.7z"/>
	<path class="st9" d="M1029.2,415.4l121.2,40.6c-0.3,0.5-0.5,1-0.8,1.4l-121.2-40.6C1028.7,416.4,1028.9,415.9,1029.2,415.4z"/>
	<path class="st9" d="M911.7,415.3l-123.1,37c-0.3-0.5-0.5-1-0.7-1.5l123.1-37C911.2,414.3,911.5,414.8,911.7,415.3z"/>
</g>
<g>
	<path class="st9" d="M1133.7,476.1v-1.8l3.7,1.8c-0.3,0.4-0.7,0.9-1,1.3L1133.7,476.1L1133.7,476.1z M1133.7,463.8V462l10.6,4.3
		c-0.3,0.5-0.6,0.9-0.9,1.4L1133.7,463.8L1133.7,463.8z M1133.7,452.2v-1.7l16.7,5.6c-0.3,0.5-0.5,1-0.8,1.4L1133.7,452.2z
		 M1133.7,450.5v1.7l-10.6-3.6c0.1-0.2,0.3-0.5,0.4-0.7l0.3-0.7L1133.7,450.5L1133.7,450.5z M1133.7,462v1.8l-12.8-5.2v-1.8
		L1133.7,462L1133.7,462z M1133.7,474.3v1.8l-12.8-6.2v-1.8L1133.7,474.3L1133.7,474.3z M1120.9,494.5v-1.3l0.8,0.5L1120.9,494.5
		L1120.9,494.5z M1120.9,482v-1.9l9,5.1c-0.4,0.4-0.7,0.8-1.1,1.2L1120.9,482z M1120.9,456.8v1.8l-3.1-1.2c0.3-0.5,0.6-0.9,0.9-1.4
		L1120.9,456.8L1120.9,456.8z M1120.9,468.1v1.8l-9-4.3c0.3-0.4,0.7-0.9,1-1.3L1120.9,468.1L1120.9,468.1z M1120.9,480.1v1.9
		l-11.7-6.6v-1.9L1120.9,480.1L1120.9,480.1z M1120.9,493.2v1.3l-0.4,0.4l-11.3-7.3v-2L1120.9,493.2L1120.9,493.2z M1109.2,500.8
		v-2.1l3.8,2.9c-0.4,0.4-0.9,0.7-1.3,1.1L1109.2,500.8z M1109.2,473.6v1.9l-3.8-2.2c0.4-0.4,0.8-0.8,1.1-1.2L1109.2,473.6
		L1109.2,473.6z M1109.2,485.6v2l-8.1-5.3v-2L1109.2,485.6L1109.2,485.6z M1109.2,498.7v2.1l-8.1-6v-2.1L1109.2,498.7L1109.2,498.7z
		 M1101.1,508.6v-2.2l2.8,2.4c-0.5,0.3-0.9,0.7-1.4,1L1101.1,508.6z M1101.1,480.3v2l-2.8-1.8c0.4-0.4,0.8-0.8,1.2-1.2L1101.1,480.3
		L1101.1,480.3z M1101.1,492.7v2.1l-8.5-6.3v-2.1L1101.1,492.7L1101.1,492.7z M1101.1,506.4v2.2l-8.5-7.2v-2.2L1101.1,506.4
		L1101.1,506.4z M1092.6,516v-2.3l1.8,1.7c-0.5,0.3-1,0.6-1.4,0.9L1092.6,516z M1092.6,486.4v2.1l-1.8-1.3c0.4-0.4,0.9-0.7,1.3-1.1
		L1092.6,486.4L1092.6,486.4z M1092.6,499.2v2.2l-8.8-7.5v-1.3l0.6-0.4L1092.6,499.2L1092.6,499.2z M1092.6,513.7v2.3l-8.8-8.6v-2.3
		L1092.6,513.7L1092.6,513.7z M1083.8,521.9v-1.4l0.8,0.9L1083.8,521.9z M1083.8,492.6v1.3l-0.8-0.7L1083.8,492.6L1083.8,492.6z
		 M1083.8,505.1v2.3l-4.1-4v-2.3L1083.8,505.1L1083.8,505.1z M1083.8,520.5v1.4l-0.7,0.4l-3.4-3.8V516L1083.8,520.5z M1079.7,501.2
		v2.3l-4.9-4.7c0.5-0.3,1-0.6,1.4-0.9L1079.7,501.2L1079.7,501.2z M1079.7,516v2.5l-9.2-10.2v-2.5L1079.7,516L1079.7,516z
		 M1070.5,524.3v-2.7l4.1,5.2c-0.5,0.3-1,0.5-1.5,0.8L1070.5,524.3z M1070.5,505.8v2.5l-4.1-4.5c0.5-0.3,1-0.6,1.5-0.8L1070.5,505.8
		L1070.5,505.8z M1070.5,521.6v2.7l-9.4-11.9v-2.7L1070.5,521.6L1070.5,521.6z M1061.1,529.7v-3l3.3,4.8c-0.5,0.2-1.1,0.5-1.6,0.7
		L1061.1,529.7z M1061.1,509.7v2.7l-3.3-4.1c0.5-0.3,1-0.5,1.5-0.8L1061.1,509.7L1061.1,509.7z M1061.1,526.8v3l-9.6-13.9v-3
		L1061.1,526.8L1061.1,526.8z M1051.5,534.9v-3.3l2.5,4.2c-0.5,0.2-1.1,0.4-1.6,0.6L1051.5,534.9z M1051.5,512.8v3l-2.5-3.6
		c0.5-0.2,1.1-0.4,1.6-0.7L1051.5,512.8L1051.5,512.8z M1051.5,531.5l-9.7-16.3v3.3l9.7,16.3V531.5L1051.5,531.5z M1041.9,539.8V536
		l1.7,3.3C1043,539.5,1042.4,539.7,1041.9,539.8L1041.9,539.8z M1041.9,515.2v3.3l-1.7-2.8C1040.7,515.5,1041.3,515.3,1041.9,515.2
		L1041.9,515.2L1041.9,515.2z M1041.9,536l-9-17.8l-0.8,0.3v2l9.8,19.4V536L1041.9,536z M1032.1,542.7v-2.3l0.9,2L1032.1,542.7z
		 M1032.1,518.5v2l-0.9-1.7C1031.5,518.7,1031.8,518.6,1032.1,518.5L1032.1,518.5z M1032.1,540.4v2.3l-0.8,0.2l-9-21.4v-0.1
		c0.5-0.1,1.1-0.3,1.6-0.4L1032.1,540.4L1032.1,540.4z M1022.3,545v-0.2V545L1022.3,545z M1022.3,521.3v0.1V521.3L1022.3,521.3
		L1022.3,521.3z M1022.3,544.8v0.2c-0.5,0.1-1.1,0.2-1.6,0.3l-7.5-21.9c0.6-0.1,1.1-0.2,1.7-0.4L1022.3,544.8L1022.3,544.8z
		 M914,543.9v-1.3l7.8-20.5c0.6,0.1,1.1,0.3,1.7,0.4l-8.3,21.7L914,543.9L914,543.9z M914,521.2V520l0.5,0.1L914,521.2L914,521.2z
		 M932.6,524.4l-6.7,22.1c-0.6-0.1-1.1-0.2-1.7-0.3l6.7-22.1C931.5,524.2,932.1,524.3,932.6,524.4L932.6,524.4z M941.7,525.9
		l-5.2,22.3c-0.6-0.1-1.1-0.2-1.7-0.2l5.2-22.3C940.6,525.7,941.2,525.8,941.7,525.9L941.7,525.9z M950.9,526.9l-3.6,22.5
		c-0.6-0.1-1.1-0.1-1.7-0.2l3.6-22.5C949.7,526.8,950.3,526.9,950.9,526.9L950.9,526.9z M960,527.6l-2,22.6c-0.6,0-1.1-0.1-1.7-0.1
		l2-22.6C958.9,527.5,959.5,527.5,960,527.6L960,527.6z M969.2,527.8l-0.4,22.7c-0.6,0-1.1,0-1.7,0l0.4-22.7
		C968,527.8,968.6,527.8,969.2,527.8L969.2,527.8z M978.3,527.7l1.2,22.7c-0.6,0-1.1,0-1.7,0.1l-1.2-22.7
		C977.2,527.7,977.8,527.7,978.3,527.7L978.3,527.7z M987.5,527.1l2.8,22.6c-0.6,0-1.1,0.1-1.7,0.1l-2.8-22.6
		C986.3,527.2,986.9,527.2,987.5,527.1L987.5,527.1z M996.6,526.2l4.3,22.4c-0.6,0.1-1.1,0.1-1.7,0.2l-4.3-22.4
		C995.5,526.3,996.1,526.3,996.6,526.2L996.6,526.2z M1005.7,524.9l5.9,22.2c-0.6,0.1-1.1,0.2-1.7,0.3l-5.9-22.2
		C1004.6,525,1005.2,524.9,1005.7,524.9z M914,520v1.1l-9.4,20.3l-0.4-0.1v-3.1l8.6-18.6C913.2,519.8,913.6,519.9,914,520L914,520z
		 M914,542.6v1.3l-0.5-0.1L914,542.6L914,542.6z M904.2,519.7V517c0.4,0.1,0.8,0.3,1.3,0.4L904.2,519.7z M904.2,517v2.7l-9.7,17.7
		v-3.5l9.4-17.1L904.2,517L904.2,517z M904.2,538.3v3.1l-1.3-0.4L904.2,538.3L904.2,538.3z M894.5,517.4l2.1-3.2
		c-0.5-0.2-1.1-0.4-1.6-0.6l-0.5,0.7V517.4z M894.5,514.2v3.1l-9.6,15v-3.1L894.5,514.2L894.5,514.2z M894.5,533.9v3.5l-0.4,0.8
		c-0.5-0.2-1.1-0.4-1.6-0.6L894.5,533.9L894.5,533.9z M884.8,514.3l2.9-3.9c-0.5-0.2-1-0.5-1.6-0.7l-1.3,1.8V514.3z M884.8,511.5
		v2.8l-9.5,12.8v-2.8L884.8,511.5L884.8,511.5z M884.8,529.3v3.1l-1.3,2c-0.5-0.2-1.1-0.4-1.6-0.6L884.8,529.3L884.8,529.3z
		 M875.3,510.5v-2.6l2.2-2.5c0.5,0.3,1,0.5,1.5,0.8L875.3,510.5z M875.3,507.9v2.6L863,525c-0.4-0.2-0.8-0.4-1.2-0.6v-0.6
		L875.3,507.9L875.3,507.9z M875.3,524.3l-3.7,5c0.5,0.2,1,0.5,1.6,0.7l2.1-2.9V524.3L875.3,524.3z M861.9,510.4l8.6-8.9
		c-0.5-0.3-1-0.6-1.5-0.9l-7.2,7.4V510.4L861.9,510.4z M861.9,496.5v-0.6l0.3,0.2L861.9,496.5z M861.9,495.9v0.6l-9,8.1v-2.2
		l7.9-7.2C861.2,495.4,861.5,495.7,861.9,495.9L861.9,495.9z M861.9,508v2.4l-8.8,9.1l-0.2-0.1v-2.1L861.9,508L861.9,508z
		 M861.9,523.8v0.6l-0.3-0.2L861.9,523.8L861.9,523.8z M852.9,491.4v-2c0.4,0.3,0.9,0.7,1.3,1L852.9,491.4z M852.9,489.3v2l-8.7,6.9
		v-2.1L852.9,489.3L852.9,489.3L852.9,489.3z M852.9,502.4v2.2l-8.7,7.9v-2.2L852.9,502.4L852.9,502.4z M852.9,517.2v2.1
		c-0.4-0.3-0.9-0.5-1.3-0.8L852.9,517.2L852.9,517.2z M844.2,485.6v-2l1-0.7c0.4,0.4,0.8,0.8,1.3,1.1L844.2,485.6z M844.2,483.6v2
		l-8.3,5.8v-2L844.2,483.6L844.2,483.6z M844.2,496.2v2.1l-8.3,6.6v-2.1L844.2,496.2L844.2,496.2z M844.2,510.2v2.2l-0.9,0.8
		c-0.5-0.3-0.9-0.6-1.4-1L844.2,510.2L844.2,510.2z M835.9,479.1v-1.9l2.1-1.3c0.4,0.4,0.8,0.8,1.2,1.2L835.9,479.1z M835.9,477.1
		v1.9l-12.1,7.3v-1.9L835.9,477.1L835.9,477.1z M835.9,489.3v2l-11,7.6c-0.4-0.3-0.8-0.7-1.1-1v-0.2L835.9,489.3L835.9,489.3z
		 M835.9,502.8v2.1l-2,1.6c-0.4-0.3-0.9-0.7-1.3-1.1L835.9,502.8L835.9,502.8z M823.8,474.1v-1.8l7.5-3.9c0.4,0.4,0.7,0.9,1.1,1.3
		L823.8,474.1L823.8,474.1z M823.8,462.7v-1.8l1.4-0.6c0.3,0.5,0.6,0.9,1,1.4L823.8,462.7z M820.5,453.1l-10.2,3.8v-1.7l9.4-3.5
		C819.9,452.2,820.2,452.7,820.5,453.1L820.5,453.1z M823.8,460.9v1.8l-13.5,6v-1.8L823.8,460.9L823.8,460.9z M823.8,472.2v1.8
		l-13.5,7v-1.8L823.8,472.2L823.8,472.2z M823.8,484.5v1.9l-7.4,4.5c-0.4-0.4-0.8-0.8-1.2-1.2L823.8,484.5L823.8,484.5z
		 M823.8,497.7v0.2l-0.1-0.1L823.8,497.7L823.8,497.7z M810.3,445.8v-1.7l4.6-1.4l0.2,0.5c0.2,0.3,0.3,0.7,0.5,1L810.3,445.8z
		 M810.3,456.9l-15.8,5.9c-0.3-0.5-0.6-0.9-0.8-1.4l16.7-6.2V456.9L810.3,456.9z M810.3,444.1v1.7l-21.6,6.5c-0.3-0.5-0.5-1-0.7-1.5
		L810.3,444.1L810.3,444.1z M810.3,466.9v1.8l-9.2,4.1c-0.3-0.5-0.6-0.9-1-1.4L810.3,466.9L810.3,466.9z M810.3,479.3v1.8l-1.9,1
		c-0.4-0.4-0.7-0.9-1.1-1.3L810.3,479.3z"/>
	<path class="st10" d="M820.5,453.1l-26,9.6c-0.3-0.5-0.6-0.9-0.8-1.4l26-9.6C819.9,452.2,820.2,452.7,820.5,453.1L820.5,453.1z
		 M826.1,461.6L801,472.7c-0.3-0.5-0.6-0.9-1-1.4l25.1-11.1C825.4,460.7,825.8,461.2,826.1,461.6L826.1,461.6z M832.4,469.6
		l-24,12.5c-0.4-0.4-0.7-0.9-1.1-1.3l24-12.5C831.6,468.8,832,469.2,832.4,469.6L832.4,469.6z M839.2,477.1l-22.8,13.8
		c-0.4-0.4-0.8-0.8-1.2-1.2l22.8-13.8C838.4,476.3,838.8,476.7,839.2,477.1L839.2,477.1z M846.5,484l-21.6,15
		c-0.4-0.4-0.8-0.7-1.3-1.1l21.6-15C845.6,483.2,846.1,483.6,846.5,484L846.5,484z M854.2,490.3l-20.3,16.1
		c-0.4-0.3-0.9-0.7-1.3-1.1l20.3-16.1C853.3,489.6,853.7,490,854.2,490.3L854.2,490.3z M862.2,496.2l-18.9,17.1
		c-0.5-0.3-0.9-0.6-1.4-1l18.9-17.1C861.3,495.5,861.7,495.8,862.2,496.2L862.2,496.2z M870.5,501.4l-17.5,18
		c-0.5-0.3-1-0.6-1.5-0.9l17.4-18C869.5,500.8,870,501.1,870.5,501.4L870.5,501.4z M879,506.2L863,525c-0.5-0.3-1-0.5-1.5-0.8
		l16-18.9C878,505.6,878.5,505.9,879,506.2L879,506.2z M887.7,510.4L873.2,530c-0.5-0.2-1-0.5-1.6-0.7l14.5-19.6
		C886.7,509.9,887.2,510.2,887.7,510.4L887.7,510.4z M896.5,514.1l-13,20.3c-0.5-0.2-1.1-0.4-1.6-0.6l13-20.3
		C895.5,513.7,896,513.9,896.5,514.1L896.5,514.1z M905.5,517.4L894,538.2c-0.5-0.2-1.1-0.4-1.6-0.6l11.4-20.8
		C904.4,517,904.9,517.2,905.5,517.4L905.5,517.4z M914.5,520.2l-9.9,21.3c-0.6-0.2-1.1-0.3-1.7-0.5l9.9-21.3
		C913.4,519.9,913.9,520,914.5,520.2L914.5,520.2z M923.5,522.5l-8.3,21.7c-0.6-0.1-1.1-0.3-1.7-0.4l8.3-21.7
		C922.4,522.2,923,522.4,923.5,522.5L923.5,522.5z M932.6,524.4l-6.7,22.1c-0.6-0.1-1.1-0.2-1.7-0.3l6.7-22.1
		C931.5,524.2,932.1,524.3,932.6,524.4L932.6,524.4z M941.7,525.9l-5.2,22.3c-0.6-0.1-1.1-0.2-1.7-0.2l5.2-22.3
		C940.6,525.7,941.2,525.8,941.7,525.9L941.7,525.9z M950.9,526.9l-3.6,22.5c-0.6-0.1-1.1-0.1-1.7-0.2l3.6-22.5
		C949.7,526.8,950.3,526.9,950.9,526.9L950.9,526.9z M960,527.6l-2,22.6c-0.6,0-1.1-0.1-1.7-0.1l2-22.6
		C958.9,527.5,959.5,527.5,960,527.6L960,527.6z M969.2,527.8l-0.4,22.7c-0.6,0-1.1,0-1.7,0l0.4-22.7
		C968,527.8,968.6,527.8,969.2,527.8L969.2,527.8z M978.3,527.7l1.2,22.7c-0.6,0-1.1,0-1.7,0.1l-1.2-22.7
		C977.2,527.7,977.8,527.7,978.3,527.7L978.3,527.7z M987.5,527.1l2.8,22.6c-0.6,0-1.1,0.1-1.7,0.1l-2.8-22.6
		C986.3,527.2,986.9,527.2,987.5,527.1L987.5,527.1z M996.6,526.2l4.3,22.4c-0.6,0.1-1.1,0.1-1.7,0.2l-4.3-22.4
		C995.5,526.3,996.1,526.3,996.6,526.2L996.6,526.2z M1005.7,524.9l5.9,22.2c-0.6,0.1-1.1,0.2-1.7,0.3l-5.9-22.2
		C1004.6,525,1005.2,524.9,1005.7,524.9L1005.7,524.9z M1014.8,523.1l7.5,21.9c-0.6,0.1-1.1,0.2-1.7,0.4l-7.5-21.9
		C1013.7,523.3,1014.3,523.2,1014.8,523.1L1014.8,523.1z M1023.9,520.9l9.1,21.5c-0.6,0.1-1.1,0.3-1.7,0.4l-9.1-21.5
		C1022.8,521.2,1023.3,521,1023.9,520.9L1023.9,520.9z M1032.9,518.2l10.6,21.1c-0.5,0.2-1.1,0.4-1.6,0.5l-10.6-21.1
		C1031.8,518.6,1032.3,518.4,1032.9,518.2L1032.9,518.2z M1041.8,515.1l12.2,20.6c-0.5,0.2-1.1,0.4-1.6,0.6l-12.2-20.6
		C1040.7,515.5,1041.3,515.3,1041.8,515.1L1041.8,515.1z M1050.7,511.6l13.7,20c-0.5,0.2-1.1,0.5-1.6,0.7l-13.7-19.9
		C1049.6,512,1050.1,511.8,1050.7,511.6L1050.7,511.6z M1059.4,507.5l15.2,19.3c-0.5,0.3-1,0.5-1.5,0.8l-15.2-19.3
		C1058.3,508,1058.8,507.7,1059.4,507.5L1059.4,507.5z M1067.9,502.9l16.7,18.5c-0.5,0.3-1,0.6-1.5,0.8l-16.7-18.5
		C1066.9,503.5,1067.4,503.2,1067.9,502.9L1067.9,502.9z M1076.2,497.8l18.2,17.6c-0.5,0.3-1,0.6-1.4,0.9l-18.2-17.6
		C1075.3,498.4,1075.8,498.1,1076.2,497.8L1076.2,497.8z M1084.3,492.2l19.6,16.6c-0.5,0.3-0.9,0.7-1.4,1l-19.6-16.6
		C1083.4,492.9,1083.9,492.5,1084.3,492.2L1084.3,492.2z M1092.1,486l20.9,15.6c-0.4,0.4-0.9,0.7-1.3,1.1l-20.9-15.6
		C1091.3,486.7,1091.7,486.4,1092.1,486L1092.1,486z M1099.5,479.3l22.2,14.4c-0.4,0.4-0.8,0.8-1.2,1.2l-22.2-14.4
		C1098.7,480.1,1099.1,479.7,1099.5,479.3L1099.5,479.3z M1106.5,472l23.4,13.2c-0.4,0.4-0.7,0.8-1.1,1.2l-23.4-13.2
		C1105.7,472.9,1106.1,472.5,1106.5,472L1106.5,472z M1112.9,464.2l24.5,11.8c-0.3,0.4-0.7,0.9-1,1.3l-24.5-11.8
		C1112.2,465.1,1112.6,464.7,1112.9,464.2L1112.9,464.2z M1118.8,455.9l25.6,10.4c-0.3,0.5-0.6,0.9-0.9,1.4l-25.6-10.4
		C1118.2,456.9,1118.5,456.4,1118.8,455.9L1118.8,455.9z M1123.9,447.2l26.5,8.9c-0.3,0.5-0.5,1-0.8,1.4l-26.5-8.9
		c0.1-0.2,0.3-0.5,0.4-0.7L1123.9,447.2L1123.9,447.2z M815.5,444.2l-26.9,8.1c-0.3-0.5-0.5-1-0.7-1.5l26.9-8.1l0.2,0.5
		C815.2,443.5,815.4,443.9,815.5,444.2z"/>
</g>
<text transform="matrix(1.066 0 0 1 870.0576 330.9893)" class="st11 st12 st13">Hola!</text>
<g>
	<rect x="958.2" y="391.4" class="st14" width="6.9" height="32.4"/>
	<rect x="974.8" y="391.4" class="st14" width="6.9" height="32.4"/>
	<rect x="958.2" y="421.2" class="st14" width="23.4" height="22"/>
</g>
</svg>
